<?xml version="1.0" encoding="utf-8"?>
<!-- Generator: Adobe Illustrator 16.0.0, SVG Export Plug-In . SVG Version: 6.00 Build 0)  -->
<!DOCTYPE svg PUBLIC "-//W3C//DTD SVG 1.1//EN" "http://www.w3.org/Graphics/SVG/1.1/DTD/svg11.dtd">
<svg version="1.1" id="map" xmlns="http://www.w3.org/2000/svg" xmlns:xlink="http://www.w3.org/1999/xlink" x="0px" y="0px"
	 width="408px" height="206px" viewBox="0 0 408 206" enable-background="new 0 0 408 206" xml:space="preserve">
<g id="other_1_">
	<path fill="#BCBCBC" d="M115.082,96.648c-0.085,1.009,0.771,0.706,1.797,0.706c1.025,0,2.821-0.2,3.163,0.303
		c0.343,0.507,1.881,1.313,2.309,1.719c0.428,0.402,1.795,0.503,1.881,0.099c0.086-0.402-0.94-1.515-1.54-1.413
		c-0.598,0.102-1.881-0.708-2.563-1.414c-0.686-0.708-1.968-0.708-2.48-0.708C117.137,95.94,115.082,96.648,115.082,96.648z"/>
	<path fill="#BCBCBC" d="M121.323,93.819c-0.781,0.101-0.596,1.21,0.344,1.009C122.608,94.626,122.094,93.716,121.323,93.819z"/>
	<path fill="#BCBCBC" d="M121.752,102.187c-0.785,0.166-0.599,1.969,0.341,1.64C123.034,103.499,122.521,102.021,121.752,102.187z"
		/>
	<path fill="#BCBCBC" d="M133.038,101.074c-0.781,0.166-0.596,1.972,0.343,1.64C134.323,102.388,133.809,100.909,133.038,101.074z"
		/>
	<path fill="#BCBCBC" d="M125.258,101.498c0,0,0.94,0.201,1.538,0.201c0.6,0,0.942,0.405,1.455,0.708
		c0.513,0.303,1.455-0.404,1.794-0.404c0.343,0,0.771,1.211,0.856-0.101c0.086-1.314-1.025-1.92-1.71-2.124
		c-0.684-0.202-1.453,0-1.965,0.101C126.711,99.981,125.258,101.498,125.258,101.498z"/>
	<path fill="#BCBCBC" d="M126.777,31.249c0.627,0.54,0.991,0.205,1.773,0.405c0.78,0.201,1.406,1.685,1.824,1.887
		c0.417,0.202,0.989,0,1.251-0.405c0.26-0.402,0.624-1.817,0.624-1.817s0,1.347,0.626,1.615c0.625,0.271,2.189-0.2,2.607-0.133
		c0.417,0.066,2.866,0.471,3.543,0.874c0.678,0.405,2.344,0.675,2.814,1.549c0.468,0.875,0.521,3.906,0.78,4.243
		c0.261,0.338,1.146-1.078,1.356-1.412c0.208-0.339,1.305-0.135,1.668,0.334c0.364,0.472,1.197,1.618,1.146,2.089
		c-0.054,0.47-0.209,1.211-0.522,0.942c-0.311-0.27-0.833-0.202-0.624-0.741c0.209-0.538,0.311-1.683-0.104-1.683
		c-0.418,0-0.782,0-0.782,0s-0.782-0.27-1.301,0.741c-0.523,1.01-0.106,2.021,0.26,2.021c0.364,0,1.199,0,1.199,0.266
		c0,0.272-0.886,1.08-0.835,1.551c0.054,0.473,0.73,2.087,0.939,2.425c0.207,0.335,1.303,0.673,1.614,0.741
		c0.314,0.067-0.729,0.133-0.469,0.605c0.263,0.472,0.678,1.615,1.251,1.885c0.573,0.271,2.188,1.482,2.397,2.021
		s1.46-0.403,1.722-0.471c0.259-0.065,0.207,1.414,0.938,1.482c0.728,0.065,0.988-0.136,1.614-0.741
		c0.625-0.606,0.469-1.414,0.52-2.02c0.054-0.607,0-1.078,0.678-0.877c0.677,0.201,1.042-0.135,0.991-0.807
		c-0.051-0.674-0.624-1.483,0.469-1.686c1.095-0.2,1.668-1.077,2.347-1.077c0.678,0,2.553,0.338,2.762,0
		c0.209-0.335,1.098-2.349,1.674-2.414c0.573-0.07,2.079,0.259,3.434-0.011c1.355-0.268,2.816-1.278,3.284-1.212
		c0.469,0.066,1.615,0.066,1.251-0.336c-0.364-0.405-0.887-1.347-1.668-1.347c-0.783,0-0.911-2.078-0.706-2.078
		c0.208,0,2.111,0.796,2.061,1.47c-0.05,0.675,0.313,1.549,1.355,1.282c1.042-0.271,0.884-1.282,0.678-1.551
		c-0.209-0.27-0.364-0.945-0.573-1.414c-0.209-0.473-0.706-1.953,0.39-2.087c1.095-0.135,3.154,1.412,3.101,0.336
		c-0.051-1.079,0-2.225,0.313-2.83c0.313-0.606,0.992-1.011,0.627-1.212c-0.367-0.2-0.835,0.271-1.2-0.74
		c-0.364-1.011,0.314-1.752,0.729-2.157c0.418-0.402,2.606-3.03,3.807-3.434c1.197-0.405,2.034-1.954,1.197-2.29
		c-0.833-0.337-2.501-0.943-3.594,0.133c-1.095,1.08-1.72,2.087-2.97,1.751c-1.251-0.336-1.441-2.121-2.153-3.04
		c-1.032-1.333-0.402-3.964-1.496-3.761c-1.096,0.202-1.096,0.202-1.096,0.202s-1.283-0.27-2.075-0.069
		c-1.042,0.264-1.717,1.003-2.312,0.844c-1.168-0.313-2.217,0.408-2.512,0.484c-2.554,0.661-4.606-0.242-4.983-0.306
		c-0.295-0.051,1.79,0.284,3.401,0c1.24-0.219,3.326-0.719,4.35-0.92c1.024-0.201,0.2-0.68-0.162-0.728
		c-1.32-0.172-3.32-0.812-4.9-0.907c-1.242-0.074-2.042,0.372-3.282,0.409c-1.586,0.048-3.478-0.062-4.721,0.841
		c-1.092,0.794-2.497,0.879-2.61,1.025c-0.624,0.807-1.197,2.828-1.77,2.291c-0.574-0.539-0.678-1.885-1.407-1.347
		c-0.731,0.538-0.053,1.885-0.681,2.828c-0.624,0.943-2.396,0.808-2.917,0.473s-1.042-0.605-3.127-0.473
		c-2.085,0.137-4.378,0.943-3.91,1.751c0.469,0.808-0.938,1.279-1.302,0.877c-0.365-0.405-2.033,0.469-1.929,1.278
		c0.105,0.807-0.261,1.751-1.146,1.548c-0.888-0.202-1.513,0.473-1.565,1.145c-0.052,0.675-2.033,1.146-2.188,1.146
		C128.392,30.508,125.839,30.442,126.777,31.249z"/>
	<path fill="#BCBCBC" d="M249.84,138.168c-1.072-0.361-1.197,1.316-2.051,2.428c-0.855,1.108-1.795,2.018-2.139,1.918
		c-0.342-0.103-2.223,0.707-1.623,2.221c0.595,1.517,0.513,3.033-0.086,3.74c-0.601,0.709,0.512,2.727,0.343,3.84
		c-0.173,1.108,0.256,1.815,1.454,1.815c1.195,0,1.625-0.503,2.137-1.815c0.514-1.315,0.596-2.629,1.109-3.737
		c0.515-1.113,0.941-3.438,1.197-4.042c0.258-0.605,0.772-2.528,0.687-3.637C250.782,139.787,250.439,138.371,249.84,138.168z"/>
	<path fill="#BCBCBC" d="M175.346,44.583c-0.229,0.451-0.683,0.473-0.229,1.417c0.457,0.941,0.8,1.479,1.198,1.414
		c0.398-0.068,1.767-0.136,1.94,0.404c0.169,0.539,0.626,1.012,1.593,0.672c0.97-0.336,1.767-0.537,1.995-0.942
		c0.229-0.404,1.77-0.47,1.77-0.47s1.254-1.146,0.796-1.616c-0.457-0.473-1.537-0.811-2.053-0.878
		c-0.513-0.067-1.025,0.473-2.165,0.473s-1.88,0.539-2.338,0C177.399,44.517,175.516,44.249,175.346,44.583z"/>
	<path fill="#BCBCBC" d="M375.107,165.246c-0.344,0.201,0,1.314,0.343,1.715c0.343,0.405,0.513,1.818,0.427,2.225
		c-0.084,0.403-1.539,0.91-0.855,1.414c0.687,0.508,1.968,0,1.797,0.605c-0.17,0.605-0.854,1.417-0.086,1.617
		c0.77,0.203,1.024-0.708,1.367-1.411c0.344-0.708,0.601-1.315,1.195-1.72c0.6-0.403,0-1.313-0.34-1.313
		c-0.344,0-0.512,0.505-1.281,0s-0.6-0.302-1.111-1.313C376.049,166.052,375.963,164.739,375.107,165.246z"/>
	<path fill="#BCBCBC" d="M374.422,171.712c-0.137,0.489-0.854,0.604-1.365,1.108c-0.513,0.506,0,0.707-1.455,1.719
		c-1.453,1.011-3.248,2.12-3.592,3.027c-0.339,0.912,0.344,1.416,1.713,1.518c1.366,0.102,1.022,0.404,1.967-0.809
		c0.938-1.211,1.793-1.92,2.906-2.928c1.111-1.013,1.111-2.529,1.111-2.529S374.509,171.41,374.422,171.712z"/>
	<path fill="#BCBCBC" d="M345.865,172.52c-0.942,1.11,0.941,1.11,0.685,2.223c-0.255,1.111,1.281,0.707,1.709,0.506
		c0.425-0.202,1.454-2.527,1.281-3.134c-0.17-0.606-1.88,1.011-2.308,0.911C346.807,172.924,345.865,172.52,345.865,172.52z"/>
	<path fill="#BCBCBC" d="M339.623,164.641c0-1.033-0.514,1.107-0.855,0.199c-0.343-0.908,0.344-2.425-0.513-1.818
		c-0.854,0.607-1.282,1.11-1.368,1.619c-0.086,0.502-1.625,0.705-1.541,0.199c0.086-0.504,0.687-1.716,0.086-2.222
		c-0.6-0.509-1.625-0.708-2.393-1.011c-0.77-0.303,0.087-1.313-1.969-0.811c-2.049,0.508-2.818,1.112-2.818,1.112
		s-1.883-0.708-2.479,0.101c-0.601,0.809-0.94,3.379-0.94,3.379s-2.909-0.953-3.425-0.853c-0.514,0.103-1.364,0.907-2.135,1.21
		c-0.771,0.303-2.053,0.605-2.565,0.104c-0.513-0.507-1.367-1.416-1.11-2.021c0.256-0.605,2.137-1.416,1.453-2.428
		c-0.686-1.008-1.111-1.211-1.197-1.815c-0.086-0.606,0.256-0.909-0.77-2.123c-1.025-1.211-0.77-2.626-0.342-2.827
		c0.429-0.205-1.422-1.416-1.762-1.922c-0.344-0.505,0.822-2.322,1.506-2.829c0.685-0.504,2.734-2.423,3.334-2.423
		s1.539,0.303,2.138-0.202s2.394-0.303,2.394-0.708c0-0.402-0.498-3.656-0.072-4.158c0.43-0.508,2.896,0.623,3.152,0.217
		c0.254-0.4,0.68-2.118,1.193-2.422c0.516-0.304,0.943-1.008,1.714,0c0.769,1.011,1.539,1.416,1.878,0.404
		c0.344-1.01,0.086-0.708,0.855-1.617c0.77-0.908-0.086-2.426,0.686-1.518c0.77,0.91,1.282,1.619,1.282,1.619
		s-0.083-2.021,0.429-2.021c0.514,0,1.026,1.01,1.282,1.01c0.257,0,2.565-0.607,2.993,0.1c0.426,0.708-1.198,2.627-0.6,3.335
		c0.6,0.708,1.793,1.108,2.649,1.718c0.856,0.605,1.881,2.021,2.312,0.811c0.426-1.213,1.281-3.031,0.683-3.94
		c-0.597-0.909,0.172-3.841,0.428-4.042c0.257-0.201,0.683,2.322,1.539,3.436c0.854,1.11,1.711,1.918,2.138,3.129
		c0.428,1.213,0.513,3.336,1.28,4.043c0.769,0.707,3.729,0.654,3.644,1.564c-0.084,0.908,0.291,2.678,1.229,4.396
		c0.942,1.719,2.757,5.74,2.757,7.357s-2.757,3.454-3.525,4.666c-0.77,1.211-1.025,2.828-1.364,3.435
		c-0.342,0.604-0.173,0.505-1.455,0.907c-1.285,0.404-2.224,1.617-2.565,1.213c-0.34-0.402-1.539-1.11-1.881-0.606
		c-0.343,0.506-0.77,1.615-1.369,0.404c-0.6-1.214-1.967-1.011-2.223-1.214c-0.257-0.2-0.257-0.809-0.257-1.818
		c0-1.007-1.11-1.109-1.198-1.413C339.879,165.246,339.623,164.943,339.623,164.641z"/>
	<path fill="#BCBCBC" d="M379.038,144.837c1.116,0.504,3.08-1.819,2.312-2.122C380.581,142.411,379.038,144.837,379.038,144.837z"/>
	<path fill="#BCBCBC" d="M368.184,149.887c-0.168,0.983-1.197,0.508-1.711-0.4c-0.516-0.909-1.539-1.617,0-1.213
		C368.01,148.675,368.268,149.383,368.184,149.887z"/>
</g>
<g id="asia">
	<path fill="#BCBCBC" d="M280.878,112.207c-0.553,0.289-1.122,5.15-0.096,5.557c1.028,0.404,1.723-3.033,1.381-3.537
		C281.82,113.723,281.65,111.802,280.878,112.207z"/>
	<path fill="#BCBCBC" d="M254.629,79.271c-0.086-0.607-0.429-3.03-1.111-3.636c-0.686-0.607,0.942-1.213,0.514-1.718
		c-0.43-0.505-1.025-0.303-1.369-0.908c-0.344-0.606-0.512-1.211-1.025-1.617c-0.513-0.405-0.938,0.406-0.854-0.708
		c0.086-1.111,1.281-1.819,1.793-1.211c0.514,0.605,2.054,0.302,2.396,0c0.344-0.303-0.686-1.213-0.941-1.821
		c-0.258-0.606-1.969-1.109-2.225-0.909c-0.256,0.205-0.938,0.811-1.623,1.313L248,60.5l72.853-6.375l18.777,14.138
		c-1.368,1.213-3.592,3.435-4.021,4.041c-0.428,0.606-1.965,0.102-2.221-0.303c-0.257-0.405-1.025,0.909-1.625,1.211
		c-0.601,0.302-1.199,0.91-1.199,1.719c0,0.808-1.707,0.808-1.707,1.314c0,0.503,1.024,1.919,1.451,2.625
		c0.426,0.708-0.086,2.932-0.855,3.436c-0.77,0.503-1.109,1.109-2.137,0.405c-1.026-0.708-0.17-1.113,0.257-2.224
		c0.429-1.112-0.427-1.717-0.601-2.02c-0.17-0.303-0.855,0.605-1.195,0.706c-0.342,0.102-0.342-0.91-0.088-1.516
		c0.258-0.605-0.168-1.917-0.424-2.018c-0.258-0.102-1.883,1.515-2.567,1.413c-0.687-0.099-0.087-1.917,0.169-2.423
		c0.259-0.505-0.514-0.102-1.025,0.403c-0.513,0.506-1.625,1.619-2.05,1.516c-0.43-0.102-1.286,0.807-0.601,1.413
		c0.683,0.607,0.941,1.113,1.369,1.213c0.427,0.102,1.539-0.202,1.967-0.303c0.426-0.1,1.281,0.708,0.426,1.617
		c-0.854,0.91-2.648,1.012-2.305,1.618c0.338,0.606,1.195,1.515,1.879,2.928c0.683,1.414,0.426,2.929,0.6,4.042
		c0.17,1.11-2.479,3.433-3.252,4.142c-0.77,0.707-1.538,2.424-2.82,3.232c-1.283,0.811-4.021,1.515-4.447,1.212
		c-0.43-0.303-1.625,0.507-1.539,1.617c0.084,1.112,0.684,1.011,0.684,1.313c0,0.303-0.855,1.517-1.195,2.022
		c-0.344,0.503-1.541,0-1.369-1.516c0.17-1.518,1.025-2.123,0.938-2.831c-0.083-0.704-0.854-1.108-1.368-0.503
		c-0.513,0.606-2.137,2.322-2.137,2.322s0.6,1.82,1.368,2.527c0.769,0.708,1.282,1.714,2.311,3.231c1.025,1.518,0.257,2.829,0,3.942
		c-0.257,1.11-1.112,1.11-1.798,1.312c-0.686,0.2-0.855,0.506-1.111,1.112c-0.257,0.606-1.492,3.506-1.664,3
		c-0.172-0.505-1.242-3.913-1.242-3.913s-0.773-1.818-1.881-2.727c-1.112-0.907-1.537-1.312-1.537-0.401
		c0,0.908-0.687,2.624-0.687,3.231c0,0.605-1.541-1.819-1.541-2.83c0-1.008-0.257-2.729-0.17-4.342
		c0.086-1.617-1.795-0.104-1.795-0.104s-1.454,3.624-1.879,3.624c-0.431,0,0-3.319,0.083-4.532c0.086-1.211-0.426-2.324-0.682-2.727
		c-0.258-0.405-1.713-2.021-1.969-3.133c-0.256-1.111-0.77-0.706-1.281-0.098c-0.513,0.604-0.342,0.604-2.394,0.604
		c-2.054,0-1.967,1.515-2.996,2.424c-1.024,0.91-1.877,2.627-3.075,3.232c-1.199,0.604-1.711,1.211-1.711,1.92
		c0,0.707,0.483,3.037,0.228,4.047c-0.257,1.012-0.91,1.914-1.511,2.925c-0.599,1.01-1.109,2.625-1.623,2.625
		c-0.513,0-0.687-1.412-0.687-2.322c0-0.909-1.452-3.03-1.794-3.737c-0.342-0.709-1.624-3.838-1.624-3.838s-1.024-3.333-0.938-4.245
		c0.084-0.909,0.084-3.434,0.084-3.434s-1.367,1.617-1.967,1.514c-0.602-0.101-1.197-1.211-1.113-2.525
		c0.086-1.313-1.024-1.213-1.625-1.416c-0.599-0.201-1.367-2.018-1.793-2.018c-0.431,0-0.687,0-1.025,0.606
		c-0.343,0.605-2.137,0.503-2.566,0.503L254.629,79.271z"/>
	<path fill="#BCBCBC" d="M343.128,69.875c-0.633,0.185-0.854,1.213-0.854,1.516c0,0.303-2.395,0.909-1.625,1.717
		s1.541,0.202,2.736,0.1c1.195-0.1,2.311-0.503,2.311-0.503s1.793,0.098,1.539-0.908c-0.258-1.011-2.14-1.113-2.48-1.011
		C344.41,70.888,343.811,69.674,343.128,69.875z"/>
	<path fill="#BCBCBC" d="M341.161,73.816c-0.629,0.447-0.257,2.224-0.769,3.436c-0.514,1.212-0.941,2.322-1.283,2.322
		c-0.344,0-2.137,0.809-2.651,1.414c-0.513,0.606-2.99-0.504-3.333,0c-0.344,0.508-1.025,1.113-1.456,1.515
		c-0.429,0.405-1.624,0.102-1.368,1.313c0.258,1.213,0.855,2.324,1.368,2.324s1.199-0.403,1.199-1.516c0-1.111,1.194,0,1.794-0.101
		c0.6-0.1,0.939-0.808,1.195-1.616c0.259-0.807-0.34,0.404,0.686,0.708c1.027,0.303,1.368-0.507,1.368-0.811
		c0-0.302,1.88-0.806,2.223-1.109c0.343-0.303,1.712-0.809,1.798-1.213c0.084-0.404,0-2.728,0.426-2.929
		c0.427-0.205,1.025-0.205,0.343-1.617C342.016,74.522,342.016,73.208,341.161,73.816z"/>
	<path fill="#BCBCBC" d="M322.35,93.716c-1.267,0.233-2.051,3.438-1.024,3.337C322.35,96.951,323.461,93.516,322.35,93.716z"/>
	<path fill="#BCBCBC" d="M296.102,116.953c-1.062,0.251,1.539,2.427,1.795,2.729c0.256,0.303,2.565,2.625,2.565,3.738
		c0,1.111,0.744,4.568,1.171,4.973c0.428,0.405,3.359,1.088,3.702,1.897c0.343,0.806,1.11,1.01,1.11-0.103
		c0-1.11,0.171-2.426,0.597-3.03c0.429-0.607,0.257-1.517-0.426-1.413c-0.683,0.102-1.282-1.314-2.394-2.223
		c-1.111-0.912-1.967-1.517-2.992-2.828c-1.025-1.313-2.312-2.123-2.994-2.83C297.552,117.154,296.527,116.854,296.102,116.953z"/>
	<path fill="#BCBCBC" d="M299.434,111.6c-0.683,0.102-0.683,1.617-0.343,2.123c0.343,0.504,1.028,0.202,1.454,2.02
		c0.43,1.818,1.285,3.639,1.625,4.347c0.342,0.704,1.798,1.716,2.311,2.22c0.513,0.506,1.281-0.201,0.941-0.808
		c-0.343-0.606-1.029-1.515-1.115-2.224c-0.084-0.705-0.514-1.817-1.195-3.03c-0.686-1.212-1.281-1.515-1.711-2.321
		C300.975,113.114,299.434,111.6,299.434,111.6z"/>
	<path fill="#BCBCBC" d="M306.617,130.695c-0.625,0.92,0.17,1.615,0.426,1.815c0.257,0.202,1.198,0.404,2.055,0.304
		c0.855-0.102,2.051-0.404,1.111-1.01c-0.941-0.605-2.053,0-2.396-0.807C307.473,130.188,306.96,130.188,306.617,130.695z"/>
	<path fill="#BCBCBC" d="M311.577,131.502c-0.599,0.303-1.538,0.503-0.854,1.211c0.682,0.708,1.111,1.012,2.137,0.911
		c1.025-0.103,2.566,0.606,2.649,0c0.087-0.604-0.938-1.517-1.364-1.517C313.714,132.107,311.577,131.502,311.577,131.502z"/>
	<path fill="#BCBCBC" d="M319.956,134.837c-0.192,0.902,1.28,1.313,1.368,0.302C321.407,134.128,320.128,134.027,319.956,134.837z"
		/>
	<path fill="#BCBCBC" d="M324.489,135.544c0.133,1.104,1.879-0.606,1.879-0.606s1.37-0.201,1.37-0.91c0-0.707-1.37-1.617-1.885-0.81
		C325.341,134.027,324.402,134.837,324.489,135.544z"/>
	<path fill="#BCBCBC" d="M320.725,124.229c-0.513,0.201-0.426,0.709-0.596,1.715c-0.172,1.012-0.941,1.719-0.259,2.224
		c0.687,0.506,1.968-1.717,2.312-1.011c0.342,0.707-0.086,1.011,0.512,1.92c0.6,0.91,1.711,0.808,1.711,0.808
		s-0.086-2.425-1.025-3.032c-0.941-0.605-1.54-1.31-0.43-1.108c1.113,0.2,1.712-0.304,1.455-0.908
		c-0.256-0.606-1.881-0.304-2.396-0.202C321.495,124.732,320.725,124.229,320.725,124.229z"/>
	<path fill="#BCBCBC" d="M321.236,122.207c-0.594,0.706-0.17,1.414,0.77,1.314c0.941-0.102,2.91-0.405,3.335-0.405
		c0.431,0,1.027-1.313,0.687-1.313c-0.344,0-2.736,0.506-2.993,0.607C322.777,122.511,321.236,122.207,321.236,122.207z"/>
	<path fill="#BCBCBC" d="M329.958,120.792c-0.784-0.396-2.222,3.335-1.194,3.638C329.789,124.732,330.559,121.094,329.958,120.792z"
		/>
	<path fill="#BCBCBC" d="M318.244,115.439c-0.033-0.715-1.368,0.201-1.455,0.908c-0.083,0.707,0.943,1.313-0.682,1.313
		c-1.623,0-1.709,1.517-2.051,1.821c-0.343,0.303-0.687,0.4-1.371,0.604c-0.683,0.201-0.853,1.007-1.024,1.515
		c-0.17,0.504-1.365-0.908-1.708-0.508c-0.344,0.405-0.087,2.326,0.512,3.942c0.6,1.616,2.139,2.626,2.562,2.626
		c0.431,0,1.287,0,1.885,0.202c0.596,0.2,2.562,0.403,2.479-0.505s-0.258-2.323,0.6-3.233c0.855-0.908,1.71-1.414,1.283-2.728
		c-0.428-1.312-1.283-2.123-0.685-2.728c0.599-0.606,1.281-0.81,1.281-1.313C319.869,116.854,318.417,118.773,318.244,115.439z"/>
	<path fill="#BCBCBC" d="M322.436,101.194c-0.599,0,0.088,1.112-0.769,1.819c-0.854,0.705-1.798,1.006-1.285,2.221
		c0.513,1.213,2.312,2.123,1.882,2.629c-0.427,0.503-1.709,1.514-1.882,2.423c-0.17,0.907,2.054-1.417,2.652-2.325
		c0.598-0.908,1.795-0.402,2.052-0.908c0.255-0.505,0.255-0.505,0.255-0.505s-0.938-0.202-1.708-0.505
		c-0.771-0.304-1.71,0.809-1.283-0.809c0.43-1.614,1.711-1.312,1.455-2.523C323.548,101.498,322.691,101.194,322.436,101.194z"/>
	<path fill="#BCBCBC" d="M323.205,109.982c-0.291,0.125-1.025,1.92-0.083,1.92c0.94,0,2.563,0.305,2.22-0.202
		C325.002,111.193,324.146,109.579,323.205,109.982z"/>
	<path fill="#BCBCBC" d="M326.027,108.468c-0.344-0.028-1.453,2.121,0.082,2.019C327.652,110.389,327.225,108.568,326.027,108.468z"
		/>
	<path fill="#BCBCBC" d="M326.284,112.207c-1.197,1.82-1.111,1.415-1.968,1.01c-0.854-0.404-2.224,0.908-1.967,1.415
		c0.256,0.504,2.141-0.103,2.567,0.808c0.425,0.908,0.425,1.01,1.281,0.807c0.854-0.201,1.71-1.614,1.456-2.321
		C327.396,113.217,326.284,112.207,326.284,112.207z"/>
	<path fill="#BCBCBC" d="M332.1,124.126c-0.644,0.759-0.941,0.812,0.514,1.113c1.451,0.303,1.881,0.303,1.281,1.108
		c-0.6,0.809-1.025,1.819-0.513,1.918c0.513,0.104,2.05-0.402,2.222,0c0.172,0.406-0.34,0.506,1.371,0.811
		c1.707,0.305,2.049,1.012,2.393,1.414c0.341,0.404,1.369,1.719,0.684,1.719c-0.684,0-1.453,1.008-0.939,1.109
		c0.513,0.101,2.05-0.301,2.137,0c0.087,0.304,0.941,2.225,1.793,2.123c0.855-0.103,1.369-1.92,1.795-2.424
		c0.43-0.508,2.141-0.809,2.309,0.1c0.174,0.91,0.687,1.818,1.711,2.426c1.026,0.605,2.225,1.212,2.312,0.705
		c0.083-0.504-0.517-2.423-1.198-2.729c-0.685-0.303-1.88-2.02-1.88-2.728c0-0.704-1.024-0.908-1.539-1.411
		c-0.515-0.505-0.94-1.922-2.226-2.225c-1.283-0.305-1.622-0.809-2.989-1.614c-1.372-0.812-4.448-0.812-4.534-0.303
		c-0.084,0.504,0,0-1.025-0.404c-1.025-0.405-1.793,0-2.051-0.709C333.468,123.42,332.868,123.218,332.1,124.126z"/>
</g>
<g id="russia">
	<path fill="#BCBCBC" d="M257.448,39.466c-0.628,0.749-1.964,0.504-2.905-0.102c-0.941-0.606-2.05-0.705-2.564-0.909
		c-0.512-0.201,0.084-1.414,0.684-1.716c0.6-0.303,2.223-1.213,3.422-1.82c1.195-0.605,1.538-1.816,2.395-1.816
		c0.855,0,4.959-1.011,5.473-0.809c0.512,0.203,2.988,0.403,3.505-0.405c0.513-0.809,2.306-0.303,1.882,0.405
		c-0.428,0.706-1.969,2.322-2.994,2.02c-1.025-0.303-3.936-0.201-5.216,0c-1.28,0.2-2.479,1.111-3.592,1.818
		c-1.112,0.708-0.854,1.516-0.427,1.617C257.536,37.85,257.962,38.86,257.448,39.466z"/>
	<path fill="#BCBCBC" d="M343.984,59.572c-0.495,0.166-1.969-0.203-1.457,1.211c0.513,1.412,0.601,2.425,0.513,3.536
		c-0.083,1.112,0,3.434,0.173,3.736c0.17,0.303,0.854,1.011,1.282,0.809c0.427-0.201-0.172-2.221-0.172-2.625
		c0-0.405,0.599-1.011,0.942-1.111c0.342-0.1,0-1.819-0.43-2.527c-0.426-0.708-1.025-1.109-0.682-1.211
		c0.342-0.103,0.769-0.909,0.513-1.113C344.41,60.076,344.58,59.369,343.984,59.572z"/>
	<path fill="#BCBCBC" d="M303.068,30.858C303.417,30.207,302.657,30.073,303.068,30.858L303.068,30.858z"/>
	<path fill="#BCBCBC" d="M339.63,68.263c1.368-1.214,1.88-2.625,2.224-4.04c0.344-1.416,0.855-2.327,0.683-3.436
		c-0.17-1.113-0.769-1.919-1.538-1.819c-0.771,0.1-1.197,0.607-1.967,0.607s-0.17-1.417-0.514-1.417
		c-0.342,0-1.111,1.314-1.537,0.608c-0.43-0.708,1.195-1.619,2.478-2.124c1.284-0.505,3.421-3.434,4.276-3.536
		c0.853-0.1,2.994,0.202,4.873,0.102c1.882-0.102,2.479-1.01,3.08-0.505c0.596,0.505,1.877,1.112,2.649,1.011
		c0.771-0.103,0.427,0,1.625-1.011c1.194-1.011,2.306-1.516,2.905-2.324c0.6-0.807,2.224-1.413,2.311-0.606
		c0.086,0.806-0.172,1.616,0.512,1.616c0.683,0,1.709-0.81,2.566-1.211c0.852-0.405,1.538-0.909,1.538-0.909
		s-3.506,2.826-4.36,3.434c-0.856,0.605-2.91,1.011-3.766,2.222c-0.852,1.211-1.365,1.617-1.281,2.93
		c0.086,1.313,1.537,3.032,0.854,4.244c-0.683,1.211-0.938,2.93-0.938,2.93s1.025-1.719,2.477-2.832
		c1.455-1.109,2.31-2.624,2.824-3.231c0.513-0.606,2.054-0.708,2.054-1.414c0-0.709,0.426-1.617,0.682-2.428
		c0.257-0.805-0.513-0.605,0-1.614c0.513-1.01,0.431-1.819,2.995-1.819c2.562,0,1.707,0.203,3.762,0.101
		c2.051-0.101,2.819-1.312,4.787-1.918c1.967-0.606,3.504-1.011,4.104-0.708c0.6,0.304,1.541,0.103,0.941-0.605
		s-1.968-1.718-1.285-1.921c0.686-0.203,1.371-0.303,1.629-1.111c0.256-0.806-0.944-2.222-0.258-3.03
		c0.684-0.809-0.516-1.819-1.371-2.02c-0.854-0.205-4.187,0.2-4.873-0.205c-0.683-0.401-1.793-0.908-2.137-0.606
		c-0.34,0.303-1.111,1.921-1.111,1.921s-0.599,0.203-1.112-0.707c-0.513-0.912-3.332-0.809-4.188-0.809
		c-0.852,0-1.795,0.2-2.736,0.303c-0.942,0.102-1.454,0.405-2.137-0.303c-0.684-0.708-1.625-1.011-1.97-1.314
		c-0.339-0.304-2.223-0.304-3.674-0.099c-1.454,0.201-2.909,0.201-2.909,0.201s-0.683-0.303-1.708-1.011
		c-1.024-0.706-2.053-1.211-2.396-1.211c-0.342,0-2.99,0.505-3.59,0c-0.6-0.506-1.198-0.81-1.625-0.81
		c-0.43,0-0.77-0.806-0.256-0.806c0.512,0,2.906-0.811,2.906-0.811s-0.688-1.109-1.542-1.109c-0.853,0-2.389-0.505-2.819-0.505
		c-0.424,0-0.086,0.505-0.941,0.304c-0.855-0.204-2.008,0.413-2.221-0.204c-0.375-1.093-1.711,1.011-0.43,1.416
		c1.283,0.401,2.481,0,2.823,0.606c0.345,0.606,0,0.909,0,1.312c0,0.405-0.685,1.516-1.11,1.719
		c-0.429,0.202-0.942-0.303-1.793,0.202c-0.857,0.503-2.996,0.102-3.254,0.405c-0.257,0.303-0.77-0.81-1.195-0.607
		c-0.428,0.202-1.537,1.516-2.137,1.414c-0.599-0.103-1.369-0.807-1.369-1.617c0-0.808-0.256-1.819-0.513-2.021
		c-0.256-0.201-2.139-0.303-2.821-0.201c-0.687,0.101-2.82,0.303-3.164,0.706c-0.342,0.405-1.285,0.708-1.883,0.708
		c-0.596,0-1.107-0.709-2.394-0.911c-1.281-0.201-4.104-0.303-4.444-0.201c-0.343,0.101-1.453-0.202-1.027-0.605
		c0.429-0.406,1.711-1.719,0.941-2.325c-0.77-0.606-2.48-0.606-3.25-0.706c-0.768-0.102-1.538-0.303-2.736-0.102
		c-1.197,0.202-1.455,0.91-1.968,0.305c-0.512-0.608,1.282,0.303-0.512-0.608c-1.795-0.908-2.836-0.01-3.167-0.505
		c-0.055-0.083-0.098-0.156-0.133-0.224c-0.144,0.267-0.469,0.619-1.148,1.033c-1.277,0.779-2.137,0.91-2.48,1.012
		c-0.342,0.098-2.723-0.382-2.732-0.708c-0.074-2.533-1.199,0.1-2.053,0.503c-0.856,0.405-1.454,1.01-2.307,0.81
		c-0.855-0.204-2.228-0.204-3.08,0.2c-0.856,0.405-1.457,0.405-2.312,1.11c-0.854,0.708-2.479,1.113-2.479,1.113
		s-1.451-0.102-2.221-0.102c-0.771,0-1.798,0-1.115,0.708c0.687,0.708,2.74,1.416,2.996,1.821c0.256,0.402,0.596,1.613,0.17,1.916
		c-0.426,0.305-1.112,0.205-1.195-0.704c-0.086-0.909-0.174-1.011-1.198-1.416c-1.026-0.403-0.942-0.098-1.797-1.009
		c-0.853-0.911-1.795-0.81-2.22-0.203c-0.432,0.606-0.174,1.817-0.688,1.919c-0.514,0.103-1.113,0.504-1.199-0.405
		c-0.082-0.908-0.082-2.627-0.682-1.614c-0.6,1.009-0.855,1.009-0.855,1.516c0,0.504,0.514,1.008,0.344,1.916
		c-0.174,0.911-0.174,1.518,0.086,1.518c0.253,0,0.852-0.91,1.621-1.113c0.772-0.201,2.141-0.708,2.227,0.203
		c0.083,0.909,0.938,1.212,0.083,1.616c-0.856,0.404-1.795,0.202-1.968-0.404c-0.172-0.608-0.77-0.608-1.368-0.1
		c-0.597,0.504-1.881,2.323-1.881,2.323s-2.054,1.109-2.308,0.908c-0.259-0.201,0.683-1.314,1.367-1.817
		c0.684-0.506,1.199-1.617,0.94-1.922c-0.257-0.302-0.597-2.22-0.425-2.727c0.168-0.504,0.938-1.211,0.084-1.717
		c-0.855-0.506-1.454-1.111-2.139-1.414c-0.684-0.303-1.451,1.213-2.051,1.616c-0.599,0.405-0.514,0.909-1.285,1.011
		c-0.769,0.102-1.283,1.314,0,2.018c1.285,0.708,1.711,1.213,1.371,1.618c-0.342,0.405-1.798-0.203-1.798-0.203
		s-1.11-0.605-1.793-0.605c-0.687,0-1.539-0.506-2.224-0.606c-0.686-0.102-2.055-0.102-2.395,0.303
		c-0.342,0.403-1.197,1.617-1.881,1.213c-0.686-0.405-0.686-0.81-1.628-0.405c-0.937,0.406-1.877-0.302-2.39,0.303
		c-0.516,0.606-0.086,0.606-1.715,0c-1.621-0.605-1.281,0.405-2.819,0.708c-1.539,0.303-2.479-0.302-2.905,0.303
		c-0.43,0.608-1.027,1.717-1.283,1.009c-0.256-0.706,0.854-1.917,0.428-2.322c-0.428-0.405-2.225-0.203-2.48,0.1
		c-0.256,0.305-0.086,1.416,0.083,1.821c0.173,0.401,0.431,2.018-0.083,1.715c-0.514-0.302-0.43-1.314-0.941-1.211
		c-0.514,0.103-1.109,0.405-1.365,0.606c-0.258,0.2-1.285,0.2-1.543,0.605c-0.256,0.405,0.088,1.517-0.342,1.617
		c-0.427,0.1-0.77,0.505-1.709-0.203c-0.941-0.706-0.941-0.304-1.199-0.101c-0.256,0.204-1.453,1.011-1.541,0.101
		c-0.082-0.909,0.175-1.213-0.594-1.819c-0.771-0.606-0.175-0.606,0.854-0.201c1.024,0.405,2.306,0.606,4.187-0.102
		c1.885-0.705,2.654-1.008,1.885-1.413c-0.771-0.405-1.389-1.69-2.586-1.893c-1.195-0.202-2.974,0.68-4.854-0.128
		c-1.881-0.811-2.311-1.113-3.079-1.314c-0.771-0.201-5.466-2.639-7.604-2.238l4.521,13.754c0.261,0,1.455,1.416,0.772,1.619
		l8.547,14.951c0.857,0,0.088,0.808-0.514,1.009c-0.599,0.202-0.256,0.607,0.771,1.01c1.023,0.405,1.966,1.516,3.078,2.224
		l9.279,3.558c0.854-0.911-0.812-1.638-1.412-1.839c-0.6-0.203-1.795-2.425-2.224-3.133c-0.428-0.707-0.096-1.81,0.942-2.628
		c0.513-0.405,1.88,0.506,2.564,0c0,0-1.014-3.977,1.473-4.556c3.219-0.75,8.316,1.73,15.157,2c1.182,0.046,4.254-3.018,5.562-2.964
		c7.115,0.294,15.679,1.188,24.125,2.214c5.539,0.672,14.83-6.709,20-6.25c9.881,0.877,16.579,6.776,20.138,9.375
		C338.474,69.216,339.63,68.263,339.63,68.263z M233.337,51.69c-0.425,0.708-2.685-0.058-2.394-1.011
		C231.37,49.267,233.768,50.982,233.337,51.69z"/>
</g>
<g id="europe">
	<path fill="#BCBCBC" d="M208.884,74.522c-0.807,0-1.198,1.518-0.686,2.021c0.513,0.504,1.028,0.405,1.454-0.302
		C210.082,75.533,209.311,74.522,208.884,74.522z"/>
	<path fill="#BCBCBC" d="M202.385,76.139c-0.207,0.383,0.683,0.507,0.853,0.102C203.41,75.836,202.981,75.027,202.385,76.139z"/>
	<path fill="#BCBCBC" d="M212.559,77.857c-0.312,0.219,0.512,0.909,0.942,1.109c0.429,0.202,0.769,0.81,1.112,0.91
		c0.342,0.103,1.451,0,1.111-1.011c-0.343-1.009-1.111-1.009-1.369-1.009C214.1,77.857,212.988,77.555,212.559,77.857z"/>
	<path fill="#BCBCBC" d="M192.123,57.449c-0.775,0.153-0.855,1.113-1.369,1.113c-0.512,0-1.111,0.202-0.938,0.908
		c0.17,0.708,0.513,1.212,0,1.515c-0.512,0.303,0.083,1.516,0.769,1.616c0.683,0.103,1.456-0.503,2.051-0.806
		c0.599-0.303,1.455-0.909,1.455-1.819c0-0.911-0.17-1.719-0.513-2.122C193.234,57.449,192.635,57.348,192.123,57.449z"/>
	<path fill="#BCBCBC" d="M193.064,54.419c-0.692,0.272-0.429,1.311-0.086,1.818c0.343,0.503,0.941,1.616,1.795,2.02
		c0.855,0.405,2.652,0.808,1.97,1.213c-0.685,0.405-2.665,2.395-2.834,3c-0.173,0.606,2.235,0.334,2.235,0.334
		s-0.516,0.708-0.086,0.909c0.426,0.203,0.685-0.706,1.367-0.706c0.684,0,2.051,0.506,2.737,0.506c0.685,0,1.794-1.112,1.71-1.819
		c-0.086-0.708-0.942-1.817-1.71-2.223c-0.77-0.405-1.625-2.224-2.138-2.627c-0.512-0.405,1.899-1.743,1.3-2.447
		c-0.599-0.708-2.412-0.278-3.098-0.786c-0.683-0.505-1.282,0.103-1.711,0.708C194.09,54.923,193.577,54.215,193.064,54.419z"/>
	<path fill="#BCBCBC" d="M240.532,71.688 M228.378,51.285c0,0,1.372-1.301,1.747-2.066s1.337-9.45,1.337-9.45
		c-0.453-0.481-5.466-2.639-7.604-2.238c-2.137,0.406-8.047,3.754-8.385,4.057c-0.344,0.302-0.855,1.516-1.968,2.527
		c-1.112,1.007-3.044,2.007-4.671,2.41c-1.625,0.405-3.622,3.348-3.622,3.75c0,0.404,0.683,1.921,0.513,2.224
		c-0.174,0.303,0.34,1.819,1.281,2.223c0.939,0.401,2.566,0.303,2.65-0.303c0.086-0.607,1.367-1.92,1.453-1.01
		c0.084,0.909,0.939,2.321,0.771,2.929c-0.173,0.606,0,1.214,0.597,1.111c0.599-0.101,3.765-0.909,3.765-0.909
		s1.024-0.507,0.856-1.313c-0.175-0.807,1.11-1.921,1.366-2.223c0.257-0.302,1.195-1.516,0.086-1.919
		c-1.114-0.405-1.97-0.507-0.772-1.718c1.199-1.212,1.968,0,3.506-1.818c1.541-1.819-0.344-2.324,1.285-2.426
		c1.623-0.099,3.332-0.201,2.988,0.405c-0.339,0.605-2.307,1.921-3.418,2.526c-1.113,0.608-0.943,1.717-0.514,2.323
		c0.427,0.605,0.6,2.021,1.369,1.819c0.768-0.203,1.709-0.911,2.562-0.809C226.411,51.488,228.126,51.285,228.378,51.285
		 M228.378,51.285 M229.15,52.904c-0.685,0.2-1.541,0.1-2.996,0.2c-1.451,0.102-3.076,0.102-3.076,0.405
		c0,0.303,1.965,1.009,1.281,1.516c-0.683,0.504-1.367-0.102-2.223-0.204c-0.855-0.099-1.369,1.313-1.626,2.122
		c-0.255,0.808,0.427,2.224-0.854,1.719c-1.281-0.506-2.223-0.506-2.562-0.303c-0.344,0.203-0.97-0.177-1.825,0.125
		c-0.855,0.305-0.912,0.28-2.024,0.28c-1.111,0-1.111,0-1.111,0l-0.687,0.101c0,0-0.682-0.505-0.77-1.313
		c-0.082-0.811,0.344-1.719-0.082-1.92c-0.431-0.204-1.969,0.099-2.225,0.707c-0.256,0.606-0.516,1.718-0.173,2.224
		c0.343,0.503,1.37,1.514,0.43,1.211c-0.942-0.303-2.137-0.403-2.823,0.203c-0.682,0.606-1.88,1.917-1.88,1.917
		s-2.138,0.205-2.138,0.81s0,1.413-0.769,1.516c-0.769,0.1-1.798,0.403-2.823,0.605c-1.026,0.203-0.939,0.706-2.137,0.809
		c-1.199,0.101-1.369,0.707-0.257,0.908c1.112,0.2,2.82,1.01,2.907,1.919c0.085,0.911-0.087,1.92-0.507,2.834
		c-0.293,0.624-2.051,0.204-3.079,0.204c-1.026,0-3.076-0.405-3.932,0c-0.856,0.401-0.686,2.423-0.43,3.333
		c0.257,0.909-0.086,1.415-0.426,1.717c-0.343,0.304-0.429,1.212,0,1.617c0.425,0.403,0.769,1.311,1.112,1.414
		c0.342,0.1,1.451-0.303,1.88,0.203c0.426,0.505,0.855,1.719,1.112,1.414c0.256-0.303,0.596-1.617,1.025-1.314
		c0.43,0.302,1.455-0.1,2.224-0.203c0.769-0.1,1.195-1.111,1.968-1.616c0.768-0.504,0.342-0.504,0.083-1.11
		c-0.257-0.605,0.772-1.313,1.371-2.021c0.597-0.708,1.708-0.1,1.965-0.91c0.256-0.809,0.342-2.22,1.025-2.122
		c0.686,0.102,1.627,0.605,2.224,0.605c0.598,0,1.88-1.109,2.223-1.31c0.343-0.204,1.625-0.102,1.798,0.807
		c0.17,0.909,1.622,2.02,1.965,2.222c0.342,0.203,2.566,1.011,2.908,1.314c0.34,0.302,0.854,1.21,1.026,2.021
		c0.17,0.806,1.192,1.771,1.28,1.063c0.082-0.705-0.854-2.984-0.256-2.883c0.6,0.101,1.285-0.202,1.285-0.202
		s-1.627-1.314-2.226-1.617c-0.597-0.302-1.708-0.908-2.222-1.919c-0.512-1.011-1.797-1.212-1.709-2.223
		c0.082-1.011,1.281-0.403,1.967,0.405c0.683,0.807,2.394,1.92,2.992,2.624c0.6,0.708,1.539,1.013,1.795,1.921
		c0.257,0.91,1.025,1.922,1.281,2.323c0.256,0.405,0.414,3.621,0.67,4.126c0.256,0.505,1.813-1.094,2.239-1.499
		c0.427-0.404,1.196-0.606,1.282-1.416c0.086-0.806-1.025-1.412-1.368-1.715c-0.34-0.302,0.854-0.605,1.282-1.01
		c0.43-0.403,1.197-1.111,1.538-0.506c0.155,0.275,0.205,0.925,0.229,1.591l1.733-1.493c0,0,0.512-1.819-0.002-2.022
		c-0.513-0.203,0.17-1.415,0.683-1.819c0.514-0.402,1.111-1.415,1.624-2.425c0.513-1.009,1.199-1.111,1.625-1.009
		c0.431,0.1,1.368,1.919,1.624,2.525c0.258,0.605,1.113-0.201,1.456-0.404c0.339-0.202,0.856-0.808,0.938-1.313
		c0.086-0.505,0.854-0.808,1.711-0.808c0.857,0,3.798-2.482,3.635-4.396c-0.15-1.77-10.801-10.271-11.285-10.427
		C229.6,52.887,229.15,52.904,229.15,52.904z M251.828,66.703"/>
</g>
<path id="middleEast" fill="#BCBCBC" d="M254.629,79.271 M266.607,93.015 M266.607,93.015c-0.431,0-0.687,0-1.025,0.606
	c-0.343,0.605-2.137,0.503-2.566,0.503s-2.992-0.102-3.762-0.405c-0.77-0.302-1.625-2.121-2.054-2.321
	c-0.427-0.202-1.708,1.109-2.222,0.909c-0.513-0.201-1.541-1.213-2.653-1.819c-1.108-0.606-1.451-2.021-1.879-2.929
	c-0.427-0.908-1.882,0.504-1.712,1.516c0.173,1.008,2.055,2.324,2.055,3.032c0,0.703,0.342,0.908,1.281,1.816
	c0.943,0.908,0.172,1.415,0.77,1.615c0.6,0.202,1.454-0.809,2.311-1.312c0.855-0.507,0.77-1.211,1.197-1.211s0.34,1.312,1.026,1.412
	c0.681,0.102,2.479,1.313,2.906,2.124c0.43,0.806-0.427,1.312-0.771,2.018c-0.342,0.708-1.369,2.729-2.224,3.538
	c-0.854,0.808-1.794,1.917-3.079,2.22c-1.281,0.304-1.452,1.112-2.479,1.213c-1.024,0.101-3.848,1.72-4.275,2.022
	c-0.428,0.305-2.736,1.109-3.419,0.809c-0.687-0.303-0.94-2.324-1.198-3.839c-0.257-1.514-0.596-2.325-0.852-2.929
	c-0.258-0.606-1.799-2.223-2.141-2.526c-0.344-0.303-1.197-2.728-1.281-3.738c-0.088-1.011-1.026-0.608-1.196-1.717
	c-0.175-1.113-1.116-2.628-1.285-3.336s-1.881,0.103-2.563,0.203c-0.686,0.102-1.967-0.606-1.797-2.224
	c0.168-1.613,0.854-1.613,1.711-1.613c0.855,0,0.512-0.507,1.367-1.518c0.852-1.01,1.113-3.028,1.195-4.342
	c0.087-1.316-0.6-0.708-1.28-0.505c-0.684,0.201-1.711,0.505-2.051,0.403c-0.343-0.101-1.711-0.606-1.968-0.303
	c-0.26,0.303-1.711,0.101-2.051-0.403c-0.342-0.508-2.055-1.113-2.228-1.516c-0.093-0.221-0.084-1.044-0.112-1.845l1.733-1.493
	c0.17,0.403,1.024-0.608,1.708-0.608c0.682,0,2.225,0.304,2.652-0.404c0.427-0.708,1.793-0.808,2.906-0.607
	c1.111,0.203,2.055,1.113,2.822,1.213c0.77,0.102,2.82-0.101,3.505-0.303c0.683-0.203,0.513-1.619-0.599-2.323
	c-0.191-0.122-0.749-0.554-0.932-0.694l8.799,2.413c0.938,0.781,2.736,0.605,1.882,1.516c-0.855,0.909-1.026,1.211-1.798,1.109
	c-0.771-0.099-0.426,2.425,0.172,2.627c0.6,0.202,2.394,0.911,2.994,1.011c0.599,0.1,2.565-0.203,2.479-0.809
	c0,0,6.621-0.646,8.184,0.729c0.861,0.758,2.231,4.185,2.169,7.373c-0.022,1.135,1.306,2.713,1.626,3.502
	C267.071,92.02,266.607,93.016,266.607,93.015"/>
<g id="northAmerica">
	<path opacity="0.94" fill="#BCBCBC" enable-background="new    " d="M32.226,58.764c-0.86-0.341-0.426,1.312-1.282,1.513
		c-0.855,0.204-1.881,0.708-1.195,0.912c0.682,0.201,2.22-0.102,2.394-0.405C32.312,60.48,32.483,58.865,32.226,58.764z"/>
	<path opacity="0.94" fill="#BCBCBC" enable-background="new    " d="M25.644,60.984c-1.026-0.099-2.053,0-2.223,0.405
		c-0.174,0.405,0.94,0.708,1.625,0.708c0.683,0,2.051-0.508,1.794-0.606C26.583,61.39,25.644,60.984,25.644,60.984z"/>
	<path opacity="0.94" fill="#BCBCBC" enable-background="new    " d="M31.286,52.196c-0.347,0.124,0.599,0.808,0.939,0.808
		c0.342,0,0.941-1.111,0.258-1.111C31.799,51.893,32.142,51.893,31.286,52.196z"/>
	<path opacity="0.94" fill="#BCBCBC" enable-background="new    " d="M106.104,105.536c-0.427-0.505-0.769-1.213-1.538-1.213
		c-0.771,0-0.856,0.304-1.369,1.011c-0.513,0.708-1.283-0.504-1.539-0.807c-0.256-0.301-1.503,0.203-2.444,0.203
		c-0.94,0-1.37-1.932-1.403-2.324c-0.129-1.508-2.736-1.517-3.335-1.92c-0.599-0.405-1.198-1.921-0.942-2.323
		c0.256-0.405-0.426-1.719-0.426-1.719s-1.198-1.617-1.625-1.617c-0.428,0-1.796-2.827-2.566-3.635s-2.563-2.63-2.906-3.538
		c-0.341-0.909-0.428-2.322-1.281-1.614c-0.856,0.706-0.173,1.414,0.682,2.22c0.856,0.811,0.686,1.618,1.882,2.729
		c1.198,1.114,0.685,2.223,1.198,2.726c0.513,0.507,2.309,1.719,1.538,2.527c-0.769,0.81-1.538-1.011-1.881-1.111
		c-0.341-0.102-1.111-0.303-1.025-0.908c0.087-0.605-0.684-1.113-1.283-2.021c-0.597-0.909-0.854-0.404-1.623-0.404
		c-0.771,0-0.086-1.111,0.34-1.617c0.429-0.505-0.426-1.212-0.938-1.413c-0.513-0.206-1.199-2.526-1.881-3.941
		c-0.686-1.416-1.198-2.12-1.967-2.022c-0.769,0.103-2.041-0.665-2.554-1.07c-0.512-0.405-0.354-2.667-1.208-3.677
		c-0.856-1.011-1.626-2.928-1.54-4.042c0.085-1.111,0.341-3.939,0.341-4.645c0-0.708-0.66-2.052-0.66-2.354
		c0-0.302-0.196-1.184-0.537-1.282c-0.342-0.102-1.454-1.094-2.223-1.094s-1.111-1.433-0.855-2.142
		c0.256-0.706-0.684-1.917-1.112-1.917c-0.428,0-1.112-1.315-1.368-2.021c-0.256-0.708-0.94-0.708-0.769-0.305
		c0.17,0.405-0.086,1.112,0.341,1.315c0.428,0.201,0.771,1.817,0.428,2.018c-0.343,0.205-1.112-0.605-1.967-1.109
		c-0.855-0.505-0.513-2.527-0.513-3.032c0-0.505-1.197-1.011-1.711-1.011c-0.513,0-1.025,0.102-1.111-1.211
		c-0.086-1.314-1.625-2.021-2.139-2.021c-0.512,0-3.394-0.983-4.249-0.983c-0.854,0-2.162-1.241-2.677-0.836
		c-0.513,0.404-1.453-0.708-1.966-0.708c-0.513,0-0.241,1.375-1.184,2.081c-0.94,0.708-1.553-0.667-2.066-0.161
		c-0.512,0.505-1.796,1.01-1.368-0.201c0.427-1.213,0.427-1.416-0.256-1.113c-0.686,0.303-0.856,1.113-0.856,1.619
		c0,0.505-1.196,1.312-1.196,1.312s1.11,0.103,1.54,0c0.426-0.098,0.084,1.113-0.344,1.416c-0.426,0.303-1.025,1.109-1.71,0.909
		c-0.683-0.202-0.77-0.909-1.195-1.011c-0.429-0.102-0.896,1.305-2.437,2.213c-1.54,0.911-1.755-0.394-2.354-0.091
		c-0.598,0.302-2.736,1.213-3.506,1.313c-0.769,0.1-0.599-1.111-0.169-1.111c0.426,0,2.051-0.91,2.478-1.213
		c0.428-0.302,2.309-1.111,2.822-1.414c0.514-0.303,1.368-0.807,1.027-1.414c-0.342-0.606-1.454,0.305-1.454,0.305
		s-0.855-0.911-1.112-1.113c-0.256-0.202-0.771,0.809-0.771,0.809s-1.11-0.203-0.854-1.313c0.257-1.112-0.599-1.112-0.769-0.606
		c-0.173,0.505-1.624,1.313-1.711,0.808c-0.086-0.505-1.368-1.517-1.711-2.324c-0.342-0.807,0.343-0.909,1.112-1.617
		c0.77-0.706,1.881-0.908,2.823-0.806c0.941,0.1,1.538-1.213,1.197-1.315c-0.343-0.101-0.94-0.203-1.453,0.303
		c-0.514,0.507-1.797,0.405-1.797,0.405s-1.881,0-2.65-0.605c-0.769-0.608-1.197-1.517-1.197-1.517s1.54-0.708,2.736-0.806
		l0.94-0.508c0,0,0,0,0.513,0.508c0.513,0.503,1.369,0.704,2.137,0.806c0.771,0.102,0.771-0.503,0.171-1.109
		c-0.598-0.606-0.771-0.507-1.283-0.606c-0.512-0.102-0.598-0.708-1.965-0.708c-1.368,0-1.197-0.808-1.368-1.213
		c-0.172-0.405,1.309-1.193,1.652-1.093c0.343,0.103,1.597-0.223,1.597-0.223s2.224-1.007,2.48-0.807
		c0.258,0.201,1.54-0.2,2.138-0.405c0.599-0.201,0.94-1.312,0.94-1.312s0.771,0.305,1.198,0.808c0.427,0.504,1.368,0,1.625,0
		c0.256,0,1.673,0.329,1.673,0.329s1.388-0.205,2.07-0.307c0.686-0.102,2.668,0.785,3.353,0.989
		c0.683,0.201,4.276-0.683,4.619-0.683c0.342,0,1.537,1.792,2.648,1.489c1.111-0.303,1.625,0.202,1.881,0.303
		c0.256,0.102,0.512,0.102,0.942,0.708c0.426,0.608,0.854,0.1,1.453-0.302c0.598-0.405,0.513-0.811,0.513-0.811s0,0,0.515-0.098
		c0.512-0.102,0.854,0.201,2.307,0.303c1.454,0.1,1.112-0.303,2.137-0.708c1.027-0.405,2.054,0.503,2.396,0.405
		c0.34-0.102,0.769-0.909,1.025-0.508c0.257,0.406,0.684,1.214,0.684,1.214s1.111-1.01,1.455-1.01c0.341,0,2.295,0.186,2.895,0.088
		c0.598-0.102,1.979,0.113,2.491,0.618c0.513,0.506,1.796,0.404,2.48,0.908c0.683,0.508,1.368-0.402,1.025-0.604
		c-0.342-0.203-1.197-1.01-1.197-1.01s-1.283-1.817-1.453-2.122c-0.17-0.303-0.426-0.303-0.769,0.505
		c-0.343,0.807-1.624,0.807-3.079,0.909c-1.454,0.102-0.512-0.807-2.137-0.909s-1.025-0.808-0.513-0.808
		c0.512,0,0.854-1.213,1.025-1.921c0.171-0.708,0.769-0.606,1.967-0.503c1.195,0.1,1.538-0.205,2.736,0
		c1.197,0.201,1.112-0.606,2.307-0.508c1.199,0.102,0.599,0.303,1.284,0.811c0.684,0.503,1.111,0.403,2.053,0.909
		c0.94,0.505,0.599,0.505,1.026,0.607c0.428,0.1,1.88-0.203,2.735-0.305c0.855-0.1,1.539-0.202,1.967,0.405
		c0.428,0.606,0.343,1.313,0.942,1.817c0.597,0.507-0.343-1.817-0.343-2.626c0-0.808,1.196-0.102,1.967-0.102
		c0.769,0,1.623-0.303,1.794,0.102c0.171,0.403-1.112,1.011-0.341,1.922c0.769,0.909,1.283,1.211,1.965,1.211
		c0.685,0,2.224,0.2,1.538,1.312c-0.682,1.111-2.477,1.011-3.076,1.011c-0.599,0-1.625,0.405-1.368,1.011s1.625,0.303,2.564,0.303
		c0.941,0,3.848,0.303,4.617,0c0.771-0.303,0.599-1.516-0.256-1.818c-0.854-0.303-0.17-0.909,0.685-0.708
		c0.856,0.202,1.71-0.303,1.539,0c-0.17,0.303,0.087,1.01,0.087,1.819c0,0.808,0.256,1.315,0.854,1.111
		c0.599-0.201,0.493-0.869,1.092-0.97c0.599-0.1,0.448-1.252,0.105-2.161c-0.34-0.909-0.598-1.416-0.512-1.92
		c0.086-0.505,1.027-0.606,1.54-0.102c0.512,0.507,1.196,1.514,1.196,1.514s1.027,0.708,1.368,1.517
		c0.343,0.81,0.428,0.607,1.112,0.102c0.684-0.505,0.855-0.404,1.454,0.1c0.6,0.505,0.17,1.516,0.17,1.819
		c0,0.305,0.855,0,1.026-0.605c0.172-0.605,0.855-0.605,1.284-0.808c0.427-0.203,0.427-1.416,0.427-1.416s-1.112-0.303-2.224-0.201
		c-1.11,0.098-1.453-0.102-2.308-0.81c-0.855-0.705-0.342-1.212-0.771-1.917c-0.428-0.708,1.368-1.113,2.48-1.719
		c1.111-0.605,2.222-0.202,1.966,1.313c-0.256,1.516-0.426,1.316,0.856,1.013c1.283-0.305-0.087-1.619,0.512-1.72
		c0.6-0.101,2.138-0.404,2.652-0.304c0.513,0.102,3.334-0.303,4.02-0.303c0.683,0,1.794,0.708,2.564,1.213
		c0.77,0.506,2.823,1.211,3.335,1.514c0.513,0.303,4.105,0.909,4.446,1.011c0.343,0.103,0.343,1.314,0.685,2.325
		c0.343,1.011,1.283,0.303,1.625,0.303c0.343,0,1.539,0.708,1.883,1.212c0.34,0.507,2.907,0.908,2.907,0.908
		s-0.599,0.909-0.854,1.212c-0.257,0.304-0.856,0.507-1.369,0.91c-0.515,0.406-1.112-0.1-1.798-0.605
		c-0.683-0.505-1.881-0.808-2.137-0.607c-0.256,0.204-0.084,0.607,0.086,0.911c0.169,0.302,1.282,0.708,1.967,1.313
		c0.682,0.607,0.513,1.213,0.598,2.02c0.084,0.81-0.684-0.303-1.54-0.504c-0.856-0.201-0.939,0.806-0.939,0.806
		s-1.114-0.098-1.626-0.098c-0.513,0,0,0-0.94-0.811c-0.941-0.806-0.77,0.507-1.282,0.103c-0.513-0.405-1.026-1.011-1.284-0.809
		c-0.258,0.203-1.111-0.91-1.625-0.808c-0.513,0.1-2.563-0.305-3.077-0.102c-0.514,0.202-0.941,0.202-1.368,0.404
		c-0.429,0.203-0.599-1.416-0.343-1.919c0.256-0.507,0.855-0.605,1.967-0.303c1.111,0.303,1.197,0,1.453-0.507
		c0.257-0.503,0.513-1.007,1.71-1.412c1.198-0.405-0.085-0.708-0.426-0.91c-0.343-0.201-0.771-0.606-1.027,0
		c-0.257,0.607-0.856,1.315-0.856,1.315s-0.684,0-1.624-0.102c-0.941-0.102-0.257-0.506,0.171-0.708
		c0.427-0.201,0.94-1.414,0.513-1.717c-0.426-0.304-0.599-0.505-1.367-0.304c-0.77,0.202-0.257-0.708-0.77-1.011
		c-0.513-0.303-0.343,0.205-0.343,0.607c0,0.404-0.769,0.304-0.769,0.304s-1.198-0.203-1.625,0c-0.428,0.202-1.198,0.604-0.94,0.91
		c0.257,0.303,1.111,0.303,1.367,1.211c0.256,0.908-1.11,1.113-1.367,1.211c-0.258,0.103-1.283,0.507-1.283,0.507
		s-1.025-0.303-1.88-0.303c-0.856,0-1.112,0.099-0.941,0.503c0.171,0.404,0.598,0.201,0.854,0.201c0.256,0,0.256,0.507,1.027,0.303
		c0.771-0.201,0.599-0.504,1.283,0.304c0.683,0.808,1.368,0.706,2.48,1.415c1.11,0.708-0.173,1.518-0.77,1.518
		c-0.598,0-0.598-0.608-0.94-1.213c-0.343-0.607-1.709,0.1-1.709,0.1s-1.114,0.708-1.71,0.708c-0.599,0-1.027-0.103-0.258-0.809
		c0.771-0.708-0.94-0.81-0.94-1.819c0-1.01-0.493,1.72-0.493,2.225s-0.532-0.608-1.987-0.406c-1.453,0.201-1.197,0.809-3.079,2.22
		c-1.881,1.416-1.389,1.088-1.219,2.402c0.173,1.313-0.318,1.539,0.451,1.742s0.512,1.716,1.111,1.615
		c0.599-0.099,1.027-0.605,2.224,0.103c1.196,0.708,1.795,0.909,3.249,1.211c1.455,0.304,2.16,0.132,2.93-0.071
		c0.771-0.202,1.517,0.78,1.517,1.487c0,0.709,0.513,0.809,0.427,1.719c-0.085,0.909,0.941-0.81,0.941-0.81s0.426,1.518,0.083,1.719
		c-0.34,0.201,0.086,1.109,0.514,1.011c0.428-0.102,1.027,0.303,1.54-0.205c0.513-0.503-0.256-2.018-0.256-2.625
		c0-0.606-0.514-0.909-0.77-1.516c-0.257-0.606,0.684-0.708,1.026-0.101c0.343,0.605,0.94,0.101,1.538-0.405
		c0.6-0.505,0.6-1.415,0.6-1.415s-1.026-1.616-1.794-2.02c-0.771-0.405-0.43-0.505,0.339-0.708c0.771-0.203,0-0.506,0.173-1.617
		c0.171-1.111,0.171-1.818,0.598-1.818c0.428,0,1.966-0.303,3.25-0.201c1.282,0.102,1.881,1.212,2.736,1.314
		c0.854,0.098,2.221,0.303,2.479,0.806c0.256,0.506-1.513,0.82-0.913,1.628c0.597,0.808,1.254,0.496,1.854,0.799
		c0.599,0.303,1.281,0.101,2.052-1.113c0.771-1.212,1.11-1.314,1.366-1.111c0.258,0.203,1.885,2.425,2.311,2.932
		c0.428,0.504,0.84,1.972,0.926,2.48c0.086,0.503,1.724,0.145,2.066,0.145c0.341,0,1.625,1.112,1.794,1.72
		c0.173,0.605,0.514,0.809,1.625,1.111c1.113,0.303,0,1.412-0.256,2.018c-0.256,0.607-0.426,0.81-0.769,1.516
		c-0.341,0.708,0,0,0.428,0.303c0.428,0.304,0.598,0.708,1.283,0.507c0.685-0.203,1.025,0,1.282,0.605
		c0.256,0.607,0.599,1.112,0.855,1.615c0.256,0.507,0,1.313-0.343,0.81c-0.34-0.507-1.453-0.204-1.453-0.204
		s-0.513,0.606-0.685,0.303c-0.17-0.303-0.512-0.705-1.112-0.504c-0.597,0.201-1.195,0-1.881,0.104
		c-0.684,0.098-0.94-0.405-0.513-0.811c0.428-0.401,0.513-1.917,1.368-2.525c0.855-0.606,0.6-1.514,0-1.514
		c-0.599,0-0.855,0.908-1.197,1.111c-0.343,0.201-1.512-0.375-2.111,0.129c-0.598,0.506-1.566,0.881-0.967,1.083
		c0.598,0.202-0.855,1.012-1.367,1.012c-0.515,0-0.343-1.315-0.343-1.82c0-0.505-0.684,0.303-0.684,0.303s-1.368-0.909-1.881-0.303
		c-0.514,0.607-2.361,0.347-2.959,0.953c-0.599,0.608-0.888,2.178-0.888,2.178s0.514-0.302,1.539-0.605
		c1.025-0.303,0.94-0.2,1.794-0.705c0.856-0.507,1.712-0.708,2.311,0.202c0.597,0.908-0.256,1.412-0.256,1.412
		s0.341,0.708,0.682,0.91c0.343,0.203,0.428-0.202,1.027-0.607c0.598-0.401,0.342,0.81,0.515,1.213c0.17,0.405,0.77,0.405,1.11-0.1
		c0.341-0.506,0.598-0.909,0.854-0.606c0.256,0.303,0.514,1.009,0.771,1.717c0.257,0.708-1.795,0.911-2.137,1.011
		c-0.342,0.1-1.968,0.505-2.224,0.607c-0.256,0.099-1.11,1.007-1.795,1.007c-0.683,0-0.6-1.211-0.683-1.917
		c-0.086-0.708-0.942,0.101-1.027,0.403c-0.084,0.303-0.855,0.204-1.453,0.303c-0.599,0.102-1.624,0.811-1.624,1.616
		c0,0.809,1.206,1.677,0.949,2.081c-0.256,0.405-2.233,0.244-2.832,0.042c-0.598-0.202-1.453,0.303-1.196,0.708
		c0.256,0.403,0.086,1.008-0.513,0.91c-0.599-0.102-0.685,0.606-0.428,1.11c0.256,0.503-0.771,1.514-1.027,1.111
		c-0.257-0.403-0.77-0.607-0.77,0c0,0.605,0.502,1.443,1.016,2.252c0.513,0.808-1.442,0.983-2.042,1.588
		c-0.599,0.606-1.934,2.682-2.788,3.087c-0.856,0.403-1.573,1.66-1.147,2.164c0.429,0.507,0.942,2.627,1.199,3.335
		c0.256,0.708-0.087,2.726-0.856,2.628c-0.769-0.102-0.343-1.313-1.112-1.616c-0.769-0.303-1.197-2.123-1.368-3.336
		c-0.169-1.211-0.341-0.503-0.855-0.102c-0.513,0.406-1.025-0.805-1.281-1.109c-0.257-0.303-1.525,0.588-2.551,0.49
		c-1.025-0.102-1.553,0.116-1.553,0.419c0,0.302-0.17,1.211-1.112,0.606c-0.94-0.606-1.112-0.606-2.052-0.606
		s-1.795-0.103-1.965,0.302c-0.172,0.406-1.112,1.313-1.711,1.517c-0.599,0.203-1.709,1.213-1.196,1.414
		c0.514,0.203,0.514,1.618,0.171,2.424c-0.343,0.809-0.257,2.223-0.087,3.637c0.171,1.416,1.199,2.324,2.139,3.233
		c0.94,0.911,1.284,1.213,2.223,0.404c0.942-0.808,1.282-0.302,1.54-0.201c0.256,0.101,0.94-0.506,0.684-1.416
		c-0.256-0.908,0.343-1.718,1.112-1.616s1.88-0.303,2.479-0.202c0.599,0.1,0.94,2.019,0,2.827 M112.603,74.017
		c0.854,0.111,0.854-1.312,0.769-1.717c-0.085-0.405-0.085-2.12,0.258-2.425c0.34-0.303,0.77-1.211,1.71-1.313
		c0.94-0.1,1.539,0.708,1.453,1.618c-0.086,0.909,0.17,1.817,0.513,1.817c0.343,0,1.368-0.708,1.026-1.313
		c-0.341-0.606,0.256-2.628,0.256-1.919c0,0.708,0.686,1.213,1.113,1.111c0.428-0.101-0.427-1.919-1.027-2.02
		c-0.599-0.102-1.794-0.102-2.05,0c-0.256,0.1-1.711-0.507-2.397-0.405c-0.683,0.103-1.708,0.405-2.051,1.213
		c-0.342,0.809,0,2.323-0.086,2.928C112.006,72.198,111.833,73.917,112.603,74.017z M117.392,74.017
		c0.195,0.461,1.112,0.102,1.625-0.506c0.512-0.604,1.624-0.806,1.967-1.312c0.339-0.504,0.597-0.401,1.451-0.807
		c0.856-0.405,1.54-0.503,1.199-1.01c-0.343-0.506-2.138,0-2.394-0.201c-0.256-0.203-2.054,2.222-2.054,2.222
		s-1.538,0.707-1.624,1.009C117.477,73.714,117.135,73.411,117.392,74.017z M108.499,66.239c0,0.543,0.854,0.604,1.367,0.303
		c0.515-0.303,1.285-0.504,1.626-0.605c0.342-0.103,0.171,0.503,0.94,0.503s1.711,0.302,1.968,0.204
		c0.256-0.102,1.025-1.313,0.426-1.416c-0.599-0.1-1.538-0.808-2.051-1.414c-0.512-0.606-1.711,0.808-2.823,1.313
		C108.84,65.634,108.499,65.432,108.499,66.239z M73.44,62.904c-0.698-0.273,0.256,1.213,0.684,1.517
		c0.428,0.304,1.283,0.304,1.37,0.808c0.083,0.507,0.339,1.719,0.769,1.617c0.426-0.103,0.426-1.211,0.085-1.617
		c-0.341-0.403-1.625-1.616-1.881-1.616C74.211,63.613,73.697,63.006,73.44,62.904z"/>
	<path opacity="0.94" fill="#BCBCBC" enable-background="new    " d="M115.681,49.03c-0.233,0.303,1.025,0.741,1.254,0.336
		C117.164,48.964,116.25,48.288,115.681,49.03z"/>
	<path opacity="0.94" fill="#BCBCBC" enable-background="new    " d="M118.989,49.636c-0.908,0.306-0.059,1.077,0.513,0.808
		C120.07,50.176,119.785,49.366,118.989,49.636z"/>
	<path opacity="0.94" fill="#BCBCBC" enable-background="new    " d="M76.462,33.204c-0.116,0.409,0.511,0.402,1.252,0.402
		c0.741,0,1.939,0,2.282-0.201c0.342-0.201,2.051-0.672,1.995-0.067c-0.059,0.607,0.683,1.549,1.081,1.414
		c0.401-0.136,1.198-1.01,1.597-0.673c0.4,0.337,0.458,1.144,0.855,1.346c0.4,0.203,1.482,0.203,1.995,0
		c0.513-0.202,1.939-0.202,2.567-0.067c0.626,0.137,2.45,0.54,2.622,0.137c0.17-0.405,0.683-0.472,0.741-0.878
		c0.056-0.405,0.34-1.684,0.34-1.684s-0.34-0.739-0.911-0.403c-0.568,0.336-0.741,0.54-1.254,0.403
		c-0.513-0.133-0.513-1.213-1.426-1.009c-0.911,0.2-1.082,0.809-1.366,1.076c-0.286,0.271-0.913,0.471-1.14,0.338
		c-0.228-0.134-1.541-1.011-1.541-1.011s-2.737-0.133-2.85-0.539c-0.114-0.403-0.57-1.076-1.825-0.942
		c-1.254,0.134-3.42,1.012-3.763,1.012c-0.34,0,0.401,0.806-0.056,0.806C77.202,32.664,76.634,32.597,76.462,33.204z"/>
	<path opacity="0.94" fill="#BCBCBC" enable-background="new    " d="M86.153,30.442c-0.66,0.259-0.513,1.011-0.056,1.011
		c0.454,0,1.597-0.473,1.937-0.136c0.343,0.336,1.199,0.068,1.14-0.27c-0.056-0.335,0.343-1.686-0.34-1.751
		C88.147,29.229,87.179,30.037,86.153,30.442z"/>
	<path opacity="0.94" fill="#BCBCBC" enable-background="new    " d="M93.849,29.566c-0.088,0.48,0.455,0.876,1.139,0.876
		c0.686,0,2.167-0.405,2.279-0.07c0.114,0.34-0.056,0.608,0.741,0.741c0.801,0.137,1.141,0.272,1.597,0.272
		c0.457,0,0.284-0.878-0.114-1.483c-0.398-0.606-0.284-0.537-1.31-0.876c-1.027-0.336-2.054-0.336-2.736-0.27
		C94.76,28.826,94.019,28.623,93.849,29.566z"/>
	<path opacity="0.94" fill="#BCBCBC" enable-background="new    " d="M94.988,32.664c-0.431,0.445,0,1.817-0.171,1.952
		c-0.169,0.136,0.057,0.741,0.515,0.606c0.456-0.133,0.682-1.413,1.025-1.413c0.343,0,2.109-0.472,2.394,0.269
		c0.286,0.739,0.286,0.403,1.084,0.473c0.797,0.065,1.424-0.942,1.482-1.281c0.057-0.338-0.399-1.011-1.482-0.876
		C98.75,32.529,95.445,32.194,94.988,32.664z"/>
	<path opacity="0.94" fill="#BCBCBC" enable-background="new    " d="M97.098,36.233c-0.396,0.299-0.172,1.281,0.457,1.346
		c0.627,0.069,1.709-0.47,1.822-0.065c0.115,0.405,0.513,2.222,1.54,1.616c1.027-0.605,0.97-1.146,1.255-1.211
		c0.284-0.069-0.059-1.551-0.514-1.889c-0.456-0.335-1.938-0.133-2.336,0.07C98.921,36.303,97.725,35.762,97.098,36.233z"/>
	<path opacity="0.94" fill="#BCBCBC" enable-background="new    " d="M103.539,36.841c0.066,0.184,0.514,0.536,1.255,0.403
		c0.74-0.135,1.822-0.27,2.335-0.335c0.514-0.067,0.628-1.08,0.058-1.146c-0.571-0.067-1.025-0.673-1.538-0.471
		C105.136,35.494,103.367,36.368,103.539,36.841z"/>
	<path opacity="0.94" fill="#BCBCBC" enable-background="new    " d="M103.367,34.011c-0.249,0.708,2.282,1.079,1.997,0.271
		C105.079,33.471,103.653,33.204,103.367,34.011z"/>
	<path opacity="0.94" fill="#BCBCBC" enable-background="new    " d="M103.824,30.575c-0.723-0.206-1.938-0.469-1.938-0.673
		c0-0.201-0.342,0.944,0.286,1.281c0.627,0.335,1.652,0.941,2.394,1.28c0.741,0.336,2.165,0.402,2.622,1.077
		c0.456,0.671,1.996,1.212,1.996,1.212l1.825,0.204c0,0,1.254-0.339,2.564-0.204c1.312,0.135,3.249,0.337,4.333,0.27
		c1.084-0.066,1.254-0.471,1.369-0.741c0.114-0.271-1.995-0.81-2.508-0.741c-0.515,0.066-3.422,0.066-4.276,0
		c-0.855-0.069-1.938-0.069-2.624,0c-0.682,0.066-1.195-0.538-1.709-0.876c-0.512-0.337-1.652-1.414-2.336-1.55
		C105.136,30.98,105.25,30.98,103.824,30.575z"/>
</g>
<path id="southAmerica" fill="#BCBCBC" d="M163.476,129.28c-0.596-0.304-1.881-0.402-2.394-1.214
	c-0.512-0.808-1.966-1.614-2.479-1.414c-0.513,0.201-1.369,0.404-2.051-0.103c-0.686-0.503-1.794-1.11-2.223-1.513
	c-0.429-0.403-1.538-0.707-2.051-0.707c-0.516,0-0.429-0.403-1.199,0.809c-0.769,1.211,0,1.616-1.368,1.411
	c-1.369-0.2,0.17-0.303,0.942-1.513c0.769-1.212-0.087-1.92-0.942-1.616s-0.256,0.909-1.625,1.213
	c-1.368,0.304-1.368-0.707-0.513-0.909c0.856-0.203,2.394-1.113,2.394-1.518c0-0.405-0.169-1.514-0.855-1.514
	c-0.683,0-0.513-1.012-1.539-2.326c-1.025-1.312-2.491-2.803-3.518-2.598c-1.025,0.199-1.611,1.183-2.124,0.074
	c-0.513-1.113-1.112-1.313-1.455-1.92c-0.343-0.605-1.199,0-1.455-0.303s-0.256-0.303-0.256-0.303s-1.11,0.303-0.512-0.607
	c0.599-0.909,0.855-2.63,0.599-2.527c-0.256,0.104-0.684,1.518-1.112,1.416c-0.426-0.101-0.084-0.306-0.938-0.91
	c-0.858-0.608-2.224-0.101-2.224,0.404c0,0.506-0.43,0.909-0.43,0.909s-0.256-0.303-0.512-0.909c-0.257-0.607-1.453-0.705-2.053-0.1
	c-0.597,0.605-0.94-1.52-1.366-1.52c-0.429,0-1.283,0.508-1.711,1.418c-0.427,0.909-0.257,2.222-0.599,2.121
	c-0.342-0.101-0.427-1.82-0.342-2.425c0.085-0.606,1.028-1.616,0.342-1.815c-0.682-0.205-1.71,1.009-2.137,1.107
	c-0.426,0.102-1.283,0.809-1.796,1.618c-0.513,0.808-0.77,1.313-1.283,1.615l-0.001,0.003c-0.513,0.303-1.281-0.001-1.11-0.303
	c0.171-0.303-1.453-1.414-1.711-1.01c-0.256,0.403-1.027,0.707-1.796,1.11c-0.769,0.405-1.451-0.505-1.624-0.91
	c-0.17-0.403-0.513-0.505-0.598-1.819c-0.084-1.313,0.172-2.726,0.428-3.533c0.257-0.811-1.283-2.424-1.88-2.327
	c-0.599,0.103-1.198,0.811-1.796,0.708c-0.597-0.1-0.341-0.303-1.283-0.303c-0.94,0-0.17-0.201,0-1.109
	c0.171-0.909-0.341-2.121,0.599-2.932l-5.815,4.849c0.427,0.507,1.624,1.821,2.223,1.72c0.599-0.101,1.369,0.807,1.796,0.506
	c0.429-0.304,1.112,0.199,1.453,0.404c0.343,0.2,1.062,0.95,0.977,2.16c-0.087,1.213,1.16,1.475,1.673,1.779
	c0.514,0.304,1.198,1.009,1.626,1.516c0.428,0.504,1.368,0.605,1.625,0.909c0.256,0.302,0.427,0.907,1.196,0.405
	c0.769-0.51,0.6-1.418,0.6-1.418s0.855-0.201,1.281,0.203c0.429,0.401,0.685,1.71,0.94,1.916l-0.001,0.002
	c0.257,0.204,0.77,1.717,0.427,2.828c-0.342,1.112-0.256,2.225-0.6,2.225c-0.339,0-1.283,1.06-1.795,1.363
	c-0.513,0.303-1.367,1.971-1.281,2.477c0.084,0.504,0.38,2.104,0.208,2.812c-0.169,0.707-0.806,1.428-0.55,2.54
	c0.256,1.113,2.052,1.416,2.137,2.425c0.087,1.01,1.369,3.234,1.54,4.242c0.172,1.01,1.09,2.178,1.09,3.592
	c0,1.416,2.587,2.268,3.013,2.371c0.429,0.098,1.198,1.01,1.797,1.312c0.6,0.303,1.113,0.909,1.539,1.719
	c0.428,0.81,0.342,2.021,0.342,2.325c0,0.302-0.256,3.433-0.512,5.253c-0.257,1.817,0.618,3.535,0.106,4.041
	c-0.514,0.505-1.475,0.706-0.962,1.313c0.512,0.605-0.599,1.01-0.599,1.312c0,0.304,0.685,1.918,0.343,2.626
	c-0.342,0.709-0.599,1.718-0.855,2.324c-0.257,0.606-0.856,1.214-0.685,2.122c0.171,0.908-0.684,0.606-0.684,1.515
	c0,0.91,0.769,0.506,0.599,1.617c-0.172,1.114-0.599,1.417-0.599,2.223c0,0.808,0.427,1.921,0.427,2.224s-0.426,1.312-1.025,2.123
	c-0.598,0.806-1.026,1.309-0.941,1.815c0.085,0.505,0.684,1.111,0.599,1.415c-0.086,0.303-0.855,1.314-0.77,2.02
	c0.086,0.709,0.856,0.405,1.027,0.908c0.172,0.508-1.027,0.911-0.513,1.416c0.513,0.506,1.197,0.403,1.027,1.616
	c-0.173,1.213,0.939,1.513,1.195,1.817c0.257,0.304,0.769,1.011,1.199,1.011c0.426,0,0.768-0.302,0.94-1.412
	c0.171-1.112,1.366-0.204,0.512,0.604c-0.853,0.808-1.283,1.211-1.026,1.211c0.257,0,1.541,0.811,2.224,0.811
	c0.684,0,2.053-0.404,2.31-0.506c0.257-0.102,2.138-0.405,2.307-0.708c0.172-0.302-1.453-0.2-2.224-0.504
	c-0.768-0.304-2.137-1.819-2.307-2.425c-0.173-0.605-0.173-1.819,0.427-2.225c0.6-0.404,2.054-1.816,2.395-2.119
	c0.342-0.304,0.854-1.72,0.598-1.922c-0.256-0.201-1.538,0-1.709-0.303s-0.171-0.707,0.684-1.414
	c0.855-0.708,1.281-1.715,1.625-2.02c0.342-0.303,1.024-0.91,1.283-1.617c0.256-0.707-0.258-0.303-0.771-0.303
	c-0.512,0-0.769-1.111-0.769-1.619c0-0.502,1.282,0.205,2.224,0.406c0.939,0.199,0.512-0.504,0.426-1.109
	c-0.083-0.607,0.173-1.617,0.685-1.315c0.513,0.304,3.163-0.102,3.506-0.202c0.343-0.1,1.281-1.922,1.624-2.425
	c0.341-0.507,0.427-1.011,0-1.313c-0.427-0.303-1.617-1.484-1.787-1.785c-0.17-0.307,0.419-2.057,0.589-2.561
	c0.173-0.504,0,2.93,1.198,3.334c1.196,0.405,1.881,0.605,2.993-0.604c1.112-1.213,1.968-2.021,2.051-2.83
	c0.086-0.81,0.342-1.614,0.769-1.918c0.429-0.302,0.779-0.087,1.292-1.399c0.513-1.312,0.932-0.318,1.444-1.43
	c0.513-1.111-0.852-2.527,0.173-3.333c1.025-0.81,2.819-1.819,2.819-1.819s0.517-0.305,1.542-0.607
	c1.025-0.303,2.137-0.102,2.48-0.708c0.34-0.606,0.682-1.916,1.195-2.624c0.513-0.709,1.112-1.82,0.856-2.325
	c-0.257-0.507,0.682-2.728,0.599-3.333c-0.087-0.605-0.856-2.021,0.426-3.232c1.285-1.213,2.653-3.033,2.736-3.535
	c0.086-0.506,1.112-2.629,1.025-3.639C165.017,130.794,164.075,129.583,163.476,129.28z"/>
<path id="africa" fill="#BCBCBC" d="M196.913,81.696c0.343-0.201,1.708-0.708,2.48-1.111c0.77-0.405,3.249-1.416,3.589-1.416
	c0.343,0,4.618,0.102,5.216-0.202c0.599-0.303,2.913-0.731,3.596,1.491s-0.772,1.341-1.456,1.742
	c-0.686,0.405,0.256,1.314,0.596,1.314c0.344,0,1.539,1.313,2.137,1.313c0.6,0,2.055,0.708,2.055,0.708s1.452,1.314,2.225,1.314
	c0.769,0,2.071,1.568,2.928,0.559c0.853-1.011,1.261-3.086,2.117-2.884c0.854,0.204,1.795,1.011,2.904,1.011
	c1.111,0,3.166-0.202,3.508,0.303c0.344,0.505-2.31,2.222-2.139,2.626c0.172,0.402,0.516,0.304,1.371-0.909
	c0.854-1.213,2.138-1.213,3.163-1.515c1.026-0.303,1.542,1.614,1.712,2.22c0.169,0.605,0.939,1.718,1.538,3.032
	c0.6,1.313,1.194,3.131,1.881,4.546c0.685,1.417-0.08,4.253,0.604,5.162c0.684,0.911,2.474,1.709,2.9,2.921
	c0.43,1.212,1.454,2.425,1.797,2.526c0.344,0.1,1.795,2.422,1.881,3.027c0.084,0.606-0.513,1.922,0.853,2.023
	c1.372,0.102,2.567-0.708,2.995-0.91c0.428-0.201,3.762-1.719,4.188-1.113c0.429,0.606-0.596,3.235-0.683,3.943
	c-0.086,0.706-2.567,4.141-2.653,5.05c-0.083,0.911-1.538,2.528-2.478,2.729c-0.94,0.201-2.908,3.031-3.592,3.941
	c-0.685,0.907-1.797,2.926-2.31,3.129s-0.908,2.887-0.651,3.293c0.256,0.4,0.309,2.265,1.08,3.073
	c0.771,0.808,1.025,1.414,0.684,2.122c-0.342,0.704,0.173,2.323,0,3.637c-0.17,1.312-1.624,2.621-1.967,3.022
	c-0.34,0.405-1.965,1.522-2.65,2.532c-0.688,1.01-1.281,1.921-1.111,2.424c0.168,0.508,0.854,3.031,0.768,3.636
	c-0.081,0.608-2.35,0.919-3.035,1.322c-0.684,0.405,0.304,1.711,0.473,2.519c0.17,0.808-1.197,2.125-1.796,2.83
	c-0.601,0.708-2.224,3.131-3.333,4.041c-1.111,0.911-2.715,0.727-3.826,0.627c-1.109-0.102-2.931,0.891-3.357,1.395
	c-0.43,0.506-1.024,0.404-1.881-0.1c-0.855-0.507-0.941-1.211-1.025-2.326c-0.086-1.111-0.344-1.818-0.344-1.818
	s-0.254-1.715-1.026-2.523c-0.769-0.811-1.026-1.719-1.452-2.326c-0.427-0.604,0.793-2.328,0.705-3.439
	c-0.087-1.111-1.561-2.417-1.986-3.125c-0.43-0.708-1.285-2.628-1.627-3.335c-0.34-0.708-0.77-2.12-0.684-4.14
	c0.087-2.021,0.954-3.203,1.641-3.812c0.686-0.604,0.414-1.342-0.186-2.552c-0.6-1.214,0.087-3.237-0.43-3.941
	c-0.512-0.707-1.305-4.654-2.248-5.26c-0.941-0.605-1.939-0.602-1.428-2.014c0.514-1.416,0-2.829,0.855-3.738
	c0.855-0.908,0.426-1.514-0.514-2.123c-0.941-0.605-0.598-0.908-1.367-0.2c-0.773,0.707-1.797,1.111-2.395,0.402
	c-0.599-0.707-0.429-1.817-1.541-2.627c-1.111-0.806-2.893-0.529-3.322-0.329c-0.426,0.204-1.295,1.945-2.494,2.146
	c-1.195,0.205-2.051-0.101-3.249-0.101c-1.196,0-2.223,0.101-2.394,0.81c-0.169,0.707-0.426,1.111-1.195,0.403
	c-0.772-0.707-2.31-2.325-2.31-2.325s-1.42-2.785-1.85-4.002c-0.426-1.209-1.912-1.25-3.536-2.16
	c-1.625-0.91-0.686-1.92-0.856-2.929c-0.17-1.011-1.025-1.416-0.599-1.517c0.429-0.102,0.343-0.807,1.282-2.223
	c0.942-1.413,0.342-2.93,0.173-3.739c-0.173-0.808-1.026-2.019-0.173-3.333c0.855-1.313,1.391-4.447,2.074-5.256
	c0.686-0.808,2.716-1.615,3.655-2.118c0.941-0.508,0.343-1.818,0.855-3.334c0.512-1.516,1.285-2.224,1.542-2.224
	c0.256,0,1.205-1.049,2.22-1.715C194.773,81.291,196.57,81.896,196.913,81.696z M234.279,123.218
	c-0.231-0.436-1.711-0.305-1.967,0.202c-0.256,0.506-0.514,2.827,0.256,3.031C233.337,126.652,234.707,124.025,234.279,123.218z"/>
<g id="text">
	<text id="NORTH__AMERICA_1_" transform="matrix(1 0 0 1 125.2358 120.8965)" enable-background="new    "><tspan x="0" y="0" fill="#D1D1D1" font-family="'Helvetica'" font-size="3.5">CENTRAL </tspan>
		<tspan x="0.39" y="3.2" fill="#D1D1D1" font-family="'Helvetica'" font-size="3.5">&amp; SOUTH </tspan><tspan x="0.334" y="6.4" fill="#D1D1D1" font-family="'Helvetica'" font-size="3.5">AMERICA</tspan></text>

		<text id="NORTH__AMERICA_2_" transform="matrix(1 0 0 1 203.0737 97.8359)" fill="#D1D1D1" font-family="'Helvetica'" font-size="3.5">AFRICA</text>

		<text id="NORTH__AMERICA_3_" transform="matrix(1 0 0 1 209.5684 65.6694)" fill="#D1D1D1" font-family="'Helvetica'" font-size="3.5">EUROPE</text>

		<text id="NORTH__AMERICA_4_" transform="matrix(1 0 0 1 237.3301 86.1401)" fill="#D1D1D1" font-family="'Helvetica'" font-size="3.5">MIDDLE EAST</text>

		<text id="NORTH__AMERICA_5_" transform="matrix(1 0 0 1 285.6787 81.2754)" fill="#D1D1D1" font-family="'Helvetica'" font-size="3.5">ASIA</text>

		<text id="NORTH__AMERICA_6_" transform="matrix(1 0 0 1 292.3535 52.2749)" fill="#D1D1D1" font-family="'Helvetica'" font-size="3.5">RUSSIA</text>

		<text id="NORTH__AMERICA" transform="matrix(1 0 0 1 88.0527 71.4043)" enable-background="new    "><tspan x="0" y="0" fill="#D1D1D1" font-family="'Helvetica'" font-size="3.5">NORTH </tspan><tspan x="-1.265" y="3.2" fill="#D1D1D1" font-family="'Helvetica'" font-size="3.5">AMERICA</tspan></text>
</g>
</svg>
